# xmcd
#
# Track frame offsets:
# 150
# 15268
# 27771
# 41613
# 57620
# 72047
# 84802
# 96946
# 110461
# 123999
# 139731
# 152669
#
# Disc length: 2214 seconds
#
#
# Revision: 0
# Processed by: cddbd v1.5.1PL2 Copyright (c) Steve Scherf et al.
# Submitted via: FreeRIP 2.944 
#
DISCID=8f08a40c
DTITLE=Mococa e Paraiso - A enxurrada
DYEAR=1900
DGENRE=Sertanjeo
TTITLE0=A enxurrada
TTITLE1=A número um
TTITLE2=Tardes de amor
TTITLE3=Um restinho de você
TTITLE4=Renúncia
TTITLE5=Ferro a brasa
TTITLE6=Forró no fazendão
TTITLE7=De pé pra cima
TTITLE8=Rimas de rodeio
TTITLE9=O caçador
TTITLE10=A filha do barbeiro
TTITLE11=Rimas de rodeio
EXTD=
EXTT0=
EXTT1=
EXTT2=
EXTT3=
EXTT4=
EXTT5=
EXTT6=
EXTT7=
EXTT8=
EXTT9=
EXTT10=
EXTT11=
PLAYORDER=
